<mxfile host="app.diagrams.net" modified="2024-04-07T13:26:38.767Z" agent="Mozilla/5.0 (Windows NT 10.0; Win64; x64; rv:109.0) Gecko/20100101 Firefox/116.0" version="24.2.2" etag="1j4-OLxvLdci_ATmC0-z" type="github">
  <diagram name="Page-1" id="G7IROIcQZVicElXsmN88">
    <mxGraphModel>
      <root>
        <mxCell id="0" />
        <mxCell id="1" parent="0" />
      </root>
    </mxGraphModel>
  </diagram>
</mxfile>
